SplineFontDB: 3.0
FontName: Elian
FullName: Elian Script
FamilyName: Elian
Weight: Regular
Copyright: CC0 Public Domain (Michael Harmon 2018)
UComments: "-2017-11-1: Created with FontForge (http://fontforge.org)+AAoA--2018-5-10: Changed to CC0 License (if you still want to credit me that would be great)"
Version: 1.1
ItalicAngle: 0
UnderlinePosition: -100
UnderlineWidth: 50
Ascent: 800
Descent: 200
InvalidEm: 0
LayerCount: 2
Layer: 0 0 "Back" 1
Layer: 1 0 "Fore" 0
XUID: [1021 725 -129833945 28548]
StyleMap: 0x0000
FSType: 0
OS2Version: 0
OS2_WeightWidthSlopeOnly: 0
OS2_UseTypoMetrics: 1
CreationTime: 1509555902
ModificationTime: 1526054467
PfmFamily: 17
TTFWeight: 400
TTFWidth: 5
LineGap: 90
VLineGap: 0
OS2TypoAscent: 0
OS2TypoAOffset: 1
OS2TypoDescent: 0
OS2TypoDOffset: 1
OS2TypoLinegap: 90
OS2WinAscent: 0
OS2WinAOffset: 1
OS2WinDescent: 0
OS2WinDOffset: 1
HheadAscent: 0
HheadAOffset: 1
HheadDescent: 0
HheadDOffset: 1
OS2Vendor: 'PfEd'
Lookup: 258 0 0 "'kern' Horizontal Kerning in Latin lookup 0" { "'kern' Horizontal Kerning in Latin lookup 0-1" [150,15,0] } ['kern' ('DFLT' <'dflt' > 'latn' <'dflt' > ) ]
MarkAttachClasses: 1
DEI: 91125
LangName: 1033
Encoding: ISO8859-1
UnicodeInterp: none
NameList: AGL For New Fonts
DisplaySize: -48
AntiAlias: 1
FitToEm: 0
WinInfo: 0 19 14
BeginPrivate: 0
EndPrivate
TeXData: 1 0 0 520093 260046 173364 789506 1048576 173364 783286 444596 497025 792723 393216 433062 380633 303038 157286 324010 404750 52429 2506097 1059062 262144
BeginChars: 256 55

StartChar: a
Encoding: 97 97 0
Width: 544
VWidth: 0
Flags: W
HStem: 549 121.057<37.3653 330.055>
VStem: 443.547 64.2401<334.399 527.133>
LayerCount: 2
Fore
SplineSet
406 147 m 1
 406 147 418 189 436 285 c 0
 440.872431386 310.986300727 443.546660216 344.006849636 443.546660216 378.349331457 c 0
 443.546660216 470.876706544 424.13441825 573 376 573 c 0
 310 573 148 549 88 549 c 0
 28 549 11 616 11 616 c 1
 11 616 11 651 40 663 c 0
 50.1577941222 667.203225154 99.3304378217 670.05688004 160.65927722 670.05688004 c 0
 274.421242099 670.05688004 430.010750513 660.237905672 456 631 c 0
 496.63965443 586.006096881 507.786781857 513.62627583 507.786781857 454.373294247 c 0
 507.786781857 431.977772288 506.194335081 411.457513111 504 395 c 0
 496 335 406 147 406 147 c 1
EndSplineSet
Validated: 1
EndChar

StartChar: b
Encoding: 98 98 1
Width: 526
VWidth: 0
Flags: W
HStem: 548.614 96.3856<47.4758 350.833>
VStem: 437.91 68.0896<209.915 510.116>
LayerCount: 2
Fore
SplineSet
16 609 m 1
 16 609 65 645 155 645 c 0
 245 645 419 627 461 585 c 0
 503 543 506 327 506 261 c 0
 506 195 443 159 425 144 c 0
 422.322098743 141.768415619 411.3663826 140.820556542 394.760510865 140.820556542 c 0
 304.120294584 140.820556542 45.1433370715 169.060399795 45.1433370715 170.921042102 c 0
 45.1433370715 170.9844264 45.4438746035 171.017198168 46.061842528 171.017198168 c 0
 46.3191307506 171.017198168 46.6314435171 171.01151739 47 171 c 0
 47.5257270913 170.980528626 48.1651945013 170.970914747 48.9139507227 170.970914747 c 0
 86.6194007113 170.970914747 401.46731297 195.350484728 425 213 c 0
 435.394033504 220.795525128 437.910446931 260.101530561 437.910446931 304.111983054 c 0
 437.910446931 345.426747006 435.692858854 390.887302581 435.692858854 418.317769012 c 0
 435.692858854 429.137090834 436.03785526 437.151421042 437 441 c 0
 437.522774425 443.0910977 437.772255751 445.728781598 437.772255751 448.805898714 c 0
 437.772255751 481.04554885 410.386127875 561.522774425 383 567 c 0
 378.811388301 567.83772234 370.996919889 568.207592201 360.536420947 568.207592201 c 0
 296.075922006 568.207592201 131.135943621 554.16227766 95 549 c 0
 93.1739130435 548.739130435 91.3572778828 548.61436673 89.5527245829 548.61436673 c 0
 49.8525519849 548.61436673 16 609 16 609 c 1
EndSplineSet
Validated: 1
EndChar

StartChar: c
Encoding: 99 99 2
Width: 538
VWidth: 0
Flags: W
HStem: 125.333 79.7844<167.223 425.851>
VStem: 458.23 53.77<252.358 524.238>
LayerCount: 2
Fore
SplineSet
59 243 m 1
 59 243 239 225 299 213 c 0
 323.852813742 208.029437252 346.646752982 205.117749006 366.102597104 205.117749006 c 0
 393.61731573 205.117749006 414.455844123 210.941125497 425 225 c 0
 439.632497668 244.509996891 458.229995114 335.389989784 458.229995114 388.050706449 c 0
 458.229995114 400.169969352 457.245001555 410.264995336 455 417 c 0
 443 453 431 723 431 723 c 1
 431 723 485 585 491 519 c 0
 497 453 512 357 512 315 c 0
 512 273 497 147 473 132 c 0
 465 127 433 125.333333333 390.777777778 125.333333333 c 0
 306.333333333 125.333333333 181 132 125 132 c 0
 41 132 16 165 16 177 c 0
 16 189 59 243 59 243 c 1
EndSplineSet
Validated: 1
EndChar

StartChar: d
Encoding: 100 100 3
Width: 558
VWidth: 0
Flags: W
HStem: 544.244 72.2563<96.5641 391.621>
VStem: 32 109<215.126 378.375> 32 60.7163<400.209 535.819> 477 36<209.273 363.037> 478.5 42.18<246.607 492.756>
LayerCount: 2
Fore
SplineSet
111 180 m 1xc0
 111 180 32 219 32 243 c 0xc0
 32 267 32 423 32 477 c 0
 32 531 69 615 105 615 c 0
 123 615 187.5 616.5 252.75 616.5 c 0
 318 616.5 384 615 405 609 c 0
 447 597 513 561 519 489 c 0
 520.2 474.6 520.68 454.68 520.68 431.808 c 0xa8
 520.68 340.32 513 201.6 513 180 c 0
 513 176.865541522 512.514823212 175.4696332 511.657119007 175.4696332 c 0
 505.126620846 175.4696332 477 256.393092657 477 267 c 0x90
 477 273 478.5 318 478.5 365.25 c 0
 478.5 412.5 477 462 471 477 c 0
 459 507 393 531 285 537 c 0
 239.215927607 539.543559577 196.666702875 544.243684263 163.294790293 544.243684263 c 0
 120.437813755 544.243684263 92.7163231134 536.492104091 92.7163231134 506.466630581 c 0xa8
 92.7163231134 504.720686408 92.8100572007 502.899427993 93 501 c 0
 99 441 141 318 141 249 c 0
 141 180 111 180 111 180 c 1xc0
EndSplineSet
Validated: 1
EndChar

StartChar: s
Encoding: 115 115 4
Width: 226
VWidth: 0
Flags: W
HStem: 924 43.5868<-13.3002 119.254>
VStem: 58 114<73.2206 170.573> 74.4132 97.5868<224.492 434.987> 125.508 57.4103<660.638 909.833>
LayerCount: 2
Fore
SplineSet
94 177 m 1xc0
 94 177 98.875 177.375 106.1875 177.375 c 0
 128.125 177.375 172 174 172 147 c 0
 172 111 136 45 124 9 c 0
 121.397142274 1.19142682144 117.382853643 -2.10056746194 112.630655644 -2.10056746194 c 0
 95.4737130024 -2.10056746194 68.6985711369 40.8085731786 64 69 c 0
 61 87 58 108 58 126.75 c 0
 58 145.5 61 162 70 171 c 0
 88 189 94 177 94 177 c 1xc0
124 210 m 1
 124 210 74.4132231405 210 74.4132231405 297.903831705 c 0xa0
 74.4132231405 306.694214876 74.9090909091 316.363636364 76 327 c 0
 81.6550600116 383.550600116 125.508099484 794.54291662 125.508099484 881.800160378 c 0
 125.508099484 887.122564135 125.344939988 891.240480092 125 894 c 0
 122 918 37 924 -47.25 924 c 0
 -131.5 924 -215 918 -215 918 c 1
 -215 918 26.3223140496 967.58677686 97.2464312547 967.58677686 c 0
 104.338842975 967.58677686 109.727272727 967.090909091 113 966 c 0
 149 954 155 948 173 906 c 0
 180.714285714 888 182.918367347 866.693877551 182.918367347 845.860058309 c 0x90
 182.918367347 818.081632653 179 791.142857143 179 774 c 0
 179 744 178 435 178 435 c 1
 178 435 172 417 172 369 c 0
 172 321 172 303 172 285 c 0xa0
 172 210 124 210 124 210 c 1
EndSplineSet
Validated: 1
EndChar

StartChar: e
Encoding: 101 101 5
Width: 502
VWidth: 0
Flags: W
HStem: 167.087 63.9132<152.52 300.814>
VStem: 22.3172 78.6828<308.152 461.68> 376.367 80.5157<288.469 426.229>
LayerCount: 2
Fore
SplineSet
263 585 m 1
 263 585 185 549 137 489 c 0
 102 445 101 417 101 363 c 0
 101 309 131 279 149 255 c 0
 167 231 239 231 269 231 c 0
 299 231 335 273 359 291 c 0
 372.266873708 300.950155281 376.366563146 320.067494832 376.366563146 342.271024855 c 0
 376.366563146 360.234057978 373.683281573 380.217028989 371 399 c 0
 365.079971192 440.440201656 256.940280881 483.827444483 256.940280881 523.398458568 c 0
 256.940280881 523.93300684 256.960014404 524.46685872 257 525 c 0
 263 597 299 579 329 585 c 0
 329.741472257 585.148294451 330.512266174 585.220841284 331.310660571 585.220841284 c 0
 362.815338457 585.220841284 437.296588903 472.258527743 449 443 c 0
 453.970562748 430.573593129 456.882250994 412.656854249 456.882250994 391.239682094 c 0
 456.882250994 360.951226765 451.058874503 323.661904883 437 285 c 0
 413 219 311 183 203 168 c 0
 198.565437186 167.384088498 194.201685807 167.086828458 189.909991967 167.086828458 c 0
 89.6811379767 167.086828458 28.7536353992 329.217281407 23 381 c 0
 22.5360367292 385.175669438 22.3172328634 389.249687414 22.3172328634 393.226215332 c 0
 22.3172328634 440.674377692 53.4692170243 474.242489142 71 501 c 0
 119 573 263 585 263 585 c 1
EndSplineSet
Validated: 1
EndChar

StartChar: f
Encoding: 102 102 6
Width: 497
VWidth: 0
Flags: W
HStem: 195.999 35.8665<148.843 423.654> 590.683 20G<460.398 460.947>
VStem: 22.04 99.4453<365.938 554.913> 443 18<424.397 468.861>
LayerCount: 2
Fore
SplineSet
65 579 m 1
 65 579 113 561 119 555 c 0
 120.757359313 553.242640687 121.485281374 545.308657865 121.485281374 533.007142675 c 0
 121.485281374 503.308657865 117.242640687 448.154328933 113 393 c 0
 112.261366246 383.397761202 111.886452374 373.977382344 111.886452374 364.817221364 c 0
 111.886452374 299.568427152 130.90907003 247.522732493 173 237 c 0
 187.884898469 233.278775383 213.732411122 231.865469541 243.206711903 231.865469541 c 0
 308.779511403 231.865469541 392.303061543 238.860612309 413 243 c 0
 443 249 437 321 443 357 c 0
 448.71529872 391.29179232 459.874704016 610.683208235 460.920868215 610.683208235 c 0
 460.972981727 610.683208235 461 610.13880512 461 609 c 0
 461 585 473 339 473 315 c 0
 473 291 461 225 425 201 c 0
 412.439050627 192.626033751 388.92133395 190.09567673 361.32821994 190.09567673 c 0
 319.182059379 190.09567673 267.527999792 195.998997826 230.887528808 195.998997826 c 0
 222.764782068 195.998997826 215.379885599 195.708876178 209 195 c 0
 193.431880245 193.270208916 177.365064292 191.291069733 161.662192378 191.291069733 c 0
 122.897659318 191.291069733 86.3510445808 203.352179632 65 261 c 0
 35 342 53 351 35 411 c 0
 24.2 447 22.04 476.52 22.04 499.56 c 0
 22.04 514.92 23 527.4 23 537 c 0
 23 561 65 579 65 579 c 1
EndSplineSet
Validated: 1
EndChar

StartChar: g
Encoding: 103 103 7
Width: 527
VWidth: 0
Flags: W
HStem: 549 37.5<140.415 409.123>
VStem: 20 66<283.127 498.844>
LayerCount: 2
Fore
SplineSet
1 201 m 1
 1 201 20 450 20 474 c 0
 20 498 92 567 128 579 c 0
 146 585 177.5 586.5 207.5 586.5 c 0
 237.5 586.5 266 585 278 585 c 0
 299.972033613 585 487.058201668 556.50314431 487.058201668 554.756539203 c 0
 487.058201668 554.701321299 486.87121439 554.672839506 486.486111111 554.672839506 c 0
 485.74691358 554.672839506 484.277777778 554.777777778 482 555 c 0
 474.666666667 555.666666667 463.111111111 555.944444444 448.694444444 555.944444444 c 0
 376.611111111 555.944444444 233 549 188 549 c 0
 134 549 86 477 86 459 c 0
 86 441 110 267 116 219 c 0
 116.45577418 215.353806558 116.669196573 212.053829956 116.669196573 209.060621018 c 0
 116.669196573 172.649988301 85.0884516396 181.632677459 74 165 c 0
 72.2857142857 162.428571429 69.5714285714 161.326530612 66.1778425656 161.326530612 c 0
 45.8163265306 161.326530612 1 201 1 201 c 1
EndSplineSet
Validated: 1
EndChar

StartChar: h
Encoding: 104 104 8
Width: 523
VWidth: 0
Flags: W
HStem: 156 40.5496<148.471 358.519> 483 122<210.302 473.002> 493.125 103.875<122.871 395.802>
VStem: 22.3022 68.4385<243.684 463.073>
LayerCount: 2
Fore
SplineSet
504 537 m 1xb0
 504 537 468 483 414 483 c 0xd0
 373.5 483 271.125 493.125 207.28125 493.125 c 0
 186 493.125 169 492 160 489 c 0
 124 477 100 459 100 441 c 0
 100 431 90.7407407407 385.50617284 90.7407407407 337.783264746 c 0
 90.7407407407 299.604938272 96.6666666667 260 118 236 c 0
 145.01145341 205.837210359 214.178649037 196.54961999 286.450432473 196.54961999 c 0
 374.714512858 196.54961999 467.609162728 210.402290682 494 217 c 0
 497.64556962 217.911392405 499.676013459 218.332478769 500.294609554 218.332478769 c 0
 500.43233486 218.332478769 500.500075804 218.311605796 500.500075804 218.270623772 c 0
 500.500075804 216.072067742 305.542774447 156 262 156 c 0
 214 156 70 156 46 206 c 0
 35.6373862899 227.944358445 22.3022116689 308.225224765 22.3022116689 383.876620103 c 0
 22.3022116689 432.332303994 27.773054982 478.88871689 43 507 c 0
 82 579 106 597 166 597 c 0xb0
 206 597 321.555555556 605 399.481481481 605 c 0xd0
 438.444444444 605 468 603 474 597 c 0
 492 579 504 537 504 537 c 1xb0
EndSplineSet
Validated: 1
EndChar

StartChar: i
Encoding: 105 105 9
Width: 500
VWidth: 0
Flags: W
HStem: 183 44.8442<147.243 341.697> 583 20G<77 77>
LayerCount: 2
Fore
SplineSet
77 603 m 1
 77 603 119 573 119 555 c 0
 119 540.176470588 90.5155709343 378.861591696 90.5155709343 305.633014451 c 0
 90.5155709343 289.941176471 91.8235294118 278.294117647 95 273 c 0
 109.756470249 248.405882918 249.519530136 227.84423647 319.244905048 227.84423647 c 0
 334.570814572 227.84423647 346.512940498 228.837646833 353 231 c 0
 389 243 479 261 479 261 c 1
 479 261 401 225 383 219 c 0
 365 213 287 183 233 183 c 0
 179 183 84 189 59 207 c 0
 40.146092456 220.574813432 22.9984400944 391.125103649 22.9984400944 487.029912966 c 0
 22.9984400944 518.293449379 24.8206571299 541.624689053 29 549 c 0
 46 579 77 603 77 603 c 1
EndSplineSet
Validated: 1
EndChar

StartChar: j
Encoding: 106 106 10
Width: 306
VWidth: 0
Flags: W
HStem: 686.067 103.55<-169.505 -147 -146.948 97.2984>
VStem: 211.636 66.364<32.503 401.677>
LayerCount: 2
Fore
SplineSet
-147 783 m 1
 -147 783 -75 783 -45 789 c 0
 -42.9128784748 789.417424305 -39.7270577148 789.617044797 -35.6014734153 789.617044797 c 0
 19.5735280388 789.617044797 242.83484861 753.912878475 254 726 c 0
 266 696 278 270 278 246 c 0
 278 222 236 -150 236 -150 c 1
 236 -150 210.437869822 -13.6686390533 210.437869822 106.407828858 c 0
 210.437869822 116.414201183 210.615384615 126.307692308 211 136 c 0
 211.432073246 147.665977639 211.635973138 160.462450534 211.635973138 174.171330958 c 0
 211.635973138 350.831290368 177.77579247 679.008170907 162 692 c 0
 156.779281751 696.568128468 132.287791136 698.261611334 100.406635667 698.261611334 c 0
 34.5812183687 698.261611334 -62.7466160606 691.042230657 -87 687 c 0
 -90.800621124 686.366563146 -94.801863372 686.067494832 -98.9413630114 686.067494832 c 0
 -134.011766742 686.067494832 -179.005883371 707.533747416 -196 729 c 0
 -198.329032258 731.941935484 -199.350801249 734.974027055 -199.350801249 738.029966366 c 0
 -199.350801249 759.904058273 -147 783 -147 783 c 1
EndSplineSet
Validated: 1
EndChar

StartChar: k
Encoding: 107 107 11
Width: 411
VWidth: 0
Flags: W
HStem: 710.754 21G<16.4834 37.0889> 808 20G<54.8721 54.8721> 808 20G<54.8721 54.8721>
VStem: 323.122 57.8779<-25.1331 325.715>
LayerCount: 2
Fore
SplineSet
54.8720703125 828 m 1xd0
 54.8720703125 828 367.872070312 825 367.872070312 807 c 0
 367.872070312 793.956054688 381 361.358398438 381 115.353515625 c 0
 381 21.87109375 379.104492188 -44.6669921875 373.872070312 -51 c 0
 351.508789062 -77.181640625 242.26953125 -83.1318359375 147.581054688 -83.1318359375 c 0
 68.673828125 -83.1318359375 -0.1279296875 -79 -0.1279296875 -79 c 1
 -0.1279296875 -79 314.872070312 -34 320.872070312 -22 c 0
 322.372070312 -19 323.122070312 29 323.122070312 99.40625 c 0
 323.122070312 310.625 316.372070312 723.5 302.872070312 728 c 0
 295.055664062 730.60546875 258.38671875 732.645507812 215.629882812 732.645507812 c 0
 159.928710938 732.645507812 93.896484375 729.18359375 67.8720703125 719 c 0
 53.005859375 713.182617188 41.5283203125 710.75390625 32.6494140625 710.75390625 c 0
 0.3173828125 710.75390625 2.44140625 742.955078125 0.8720703125 761 c 0
 0.837890625 761.420898438 0.8203125 761.84765625 0.8203125 762.280273438 c 0
 0.8203125 786.495117188 54.8720703125 828 54.8720703125 828 c 1xd0
EndSplineSet
Validated: 1
EndChar

StartChar: l
Encoding: 108 108 12
Width: 370
VWidth: 0
Flags: W
HStem: -14.6667 93.5026<41.2056 262.599> 764.95 20G<324.411 325.89> 764.95 20G<324.411 325.89>
VStem: 284 46.7407<241.793 529.85>
LayerCount: 2
Fore
SplineSet
16 51 m 1xd0
 32 87 l 25
 32 87 104 87 140 81 c 0
 148.49844719 79.583592135 159.33747416 78.83592135 171.09627422 78.83592135 c 0
 209.14855055 78.83592135 256.83281573 86.66563146 266 105 c 0
 278 129 284 297 284 321 c 0
 284 344.122762947 322.98578296 784.950343325 325.835764072 784.950343325 c 0
 325.943887355 784.950343325 326 784.315855579 326 783 c 0
 326 767 330.740740741 617.074074074 330.740740741 452.530864198 c 0
 330.740740741 246.851851852 323.333333333 18.3333333333 290 0 c 0
 270 -11 246 -14.6666666667 220.666666667 -14.6666666667 c 0
 170 -14.6666666667 114 4.51461784623e-015 74 0 c 0
 17.75 0 15.9921875 44.82421875 15.9921875 50.4272460938 c 0
 15.9921875 50.80078125 16 51 16 51 c 1xd0
EndSplineSet
Validated: 1
EndChar

StartChar: r
Encoding: 114 114 13
Width: 416
VWidth: 0
Flags: W
HStem: 4.61583 108.384<121.679 313> 768.122 20G<33.9597 35.9626> 768.122 20G<33.9597 35.9626>
VStem: 13.1308 20.4634<411.423 507.735>
LayerCount: 2
Fore
SplineSet
313 113 m 1xd0
 313 113 373 101 373 83 c 0
 373 65.7780241469 351.029892423 4.61583314054 322.855038194 4.61583314054 c 0
 321.582204164 4.61583314054 320.296706912 4.7406586177 319 5 c 0
 289 11 61 11 31 23 c 0
 18.07398993 28.170404028 13.1307739291 164.964087008 13.1307739291 321.3965938 c 0
 13.1307739291 528.028573137 21.755606042 768.92601007 32 786 c 0
 32.8608117807 787.434686301 33.6232813773 788.121514598 34.2961585688 788.121514598 c 0
 37.6291100866 788.121514598 38.7639103444 771.270170082 38.7639103444 744.98435429 c 0
 38.7639103444 688.880301198 33.5942146556 589.796573802 33.5942146556 519.85042696 c 0
 33.5942146556 490.839134578 34.4835622624 466.840407557 37 453 c 0
 49 387 62 224 79 171 c 0
 81.0953133832 164.190231505 81.8700953626 157.449062043 81.8700953626 150.929211619 c 0
 81.8700953626 132.417189839 75.6239519541 115.689399604 75.6239519541 104.241624877 c 0
 75.6239519541 94.54847043 80.102116707 88.6408165393 96.6420235685 88.6408165393 c 0
 106.222862947 88.6408165393 119.850868512 90.6230556599 139 95 c 0
 198 108 229 113 247 113 c 0
 265 113 313 113 313 113 c 1xd0
EndSplineSet
Validated: 1
EndChar

StartChar: L
Encoding: 76 76 14
Width: 370
VWidth: 0
Flags: W
HStem: -14.6667 93.5026<41.2056 262.599> 764.95 20G<324.411 325.89> 764.95 20G<324.411 325.89>
VStem: 284 46.7407<241.793 529.85>
LayerCount: 2
Fore
SplineSet
16 51 m 1xd0
 32 87 l 25
 32 87 104 87 140 81 c 0
 148.49844719 79.583592135 159.33747416 78.83592135 171.09627422 78.83592135 c 0
 209.14855055 78.83592135 256.83281573 86.66563146 266 105 c 0
 278 129 284 297 284 321 c 0
 284 344.122762947 322.98578296 784.950343325 325.835764072 784.950343325 c 0
 325.943887355 784.950343325 326 784.315855579 326 783 c 0
 326 767 330.740740741 617.074074074 330.740740741 452.530864198 c 0
 330.740740741 246.851851852 323.333333333 18.3333333333 290 0 c 0
 270 -11 246 -14.6666666667 220.666666667 -14.6666666667 c 0
 170 -14.6666666667 114 4.51461784623e-015 74 0 c 0
 17.75 0 15.9921875 44.82421875 15.9921875 50.4272460938 c 0
 15.9921875 50.80078125 16 51 16 51 c 1xd0
EndSplineSet
Validated: 1
EndChar

StartChar: o
Encoding: 111 111 15
Width: 456
VWidth: 0
Flags: W
HStem: -4.65156 70.677<112.873 340.329> 889 20G<399 399> 889 20G<399 399>
VStem: 23.1809 95.0436<134.597 356.968> 38 60.4217<82.5613 269.762>
LayerCount: 2
Fore
SplineSet
105 357 m 1xd0
 105 357 118.224489796 312.918367347 118.224489796 270.096209913 c 0xd0
 118.224489796 262.959183673 117.857142857 255.857142857 117 249 c 0
 112.584660634 213.677285071 98.4217104087 168.606959283 98.4217104087 132.917471503 c 0
 98.4217104087 120.108552044 100.246018098 108.507963803 105 99 c 0
 117.781836926 73.436326148 145.691021556 66.0254695408 175.837201125 66.0254695408 c 0
 188.144327398 66.0254695408 200.824286161 67.2606123087 213 69 c 0
 218.493246941 69.784749563 224.499687112 70.0563058955 230.858229249 70.0563058955 c 0
 245.149940463 70.0563058955 261.220429908 68.6844348453 277.240536183 68.6844348453 c 0
 308.588184715 68.6844348453 339.742918852 73.9372539332 357 105 c 0
 387 159 399 909 399 909 c 25
 399 909 429 201 429 153 c 0
 429 105 423 54 393 27 c 0
 370.888974491 7.10007704165 234.701877531 -4.65155509884 152.594637511 -4.65155509884 c 0
 123.299663302 -4.65155509884 100.888974491 -3.15558979629 93 0 c 0
 63 12 38 39 38 87 c 0xc8
 38 118.689320388 23.180884155 220.987369215 23.180884155 292.030709409 c 0
 23.180884155 328.597134508 27.1067961165 356.883495146 39 363 c 0
 48.5454545455 367.909090909 57.7933884298 369.694214876 66.196093163 369.694214876 c 0
 88.6033057851 369.694214876 105 357 105 357 c 1xd0
EndSplineSet
Validated: 1
EndChar

StartChar: m
Encoding: 109 109 16
Width: 386
VWidth: 0
Flags: W
HStem: 721.846 67.6438<132.972 275.176>
VStem: 19.7543 90.2662<544.726 697.77> 284.928 64.4058<365.425 712.419>
LayerCount: 2
Fore
SplineSet
75 529 m 1
 72.7188359106 527.631301546 68.7724847484 526.418714381 64.0037531122 526.418714381 c 0
 47.8676683943 526.418714381 22.3156507732 540.302360395 20 609 c 0
 19.8345611274 613.301410688 19.7542734299 617.511587973 19.7542734299 621.63254433 c 0
 19.7542734299 692.239303882 43.3235109808 736.654388726 66 765 c 0
 83.1428571429 786.428571429 153.346938776 789.489795918 207.370262391 789.489795918 c 0
 228.979591837 789.489795918 248 789 260 789 c 0
 302 789 332 741 344 711 c 0
 348 701 349.333333333 664.333333333 349.333333333 618.111111111 c 0
 349.333333333 525.666666667 344 395 344 363 c 0
 344 315 254 -12 254 -12 c 1
 254 -12 252.5 14.25 252.5 54 c 0
 252.5 93.75 254 147 260 201 c 0
 268.230227492 275.072047429 284.927535556 470.505583048 284.927535556 595.664108792 c 0
 284.927535556 652.991706351 281.42443127 695.57556873 272 705 c 0
 259.22497216 717.77502784 246.449944321 721.84598441 232.284982071 721.84598441 c 0
 213.185917595 721.84598441 191.559955457 714.444994432 164 711 c 0
 118.689247712 705.336155964 109.913059308 678.286225752 109.913059308 629.850209363 c 0
 109.913059308 626.975473463 109.943974006 624.025403676 110 621 c 0
 110.01369863 620.150684932 110.020454119 619.307374742 110.020454119 618.47006429 c 0
 110.020454119 558.183711766 75 529 75 529 c 1
EndSplineSet
Validated: 1
EndChar

StartChar: p
Encoding: 112 112 18
Width: 238
VWidth: 0
Flags: W
HStem: -27 21G<97 97> 799 37.7235<105.203 243.583>
VStem: 16.2282 64.3144<378.805 661.072> 24 127<-2.45297 130.706>
LayerCount: 2
Fore
SplineSet
97 -27 m 1xd0
 97 -27 67 -27 43 0 c 0
 30 14 24 57 24 93 c 0xd0
 24 110.470588235 16.2281574394 270.660467128 16.2281574394 435.505139426 c 0xe0
 16.2281574394 610.340397924 24.9705882353 790.411764706 61 811 c 0
 102.539121205 834.736640688 156.305414961 840.377066001 204.280311176 840.377066001 c 0
 247.72979412 840.377066001 286.428939031 835.750561485 306.992325081 835.750561485 c 0
 309.637901918 835.750561485 311.983294967 835.827139569 314 836 c 0
 320.42002587 836.493848144 324.922836881 836.723486466 327.757124786 836.723486466 c 0
 330.339783493 836.723486466 331.537032143 836.532812906 331.537032143 836.177622752 c 0
 331.537032143 832.186783887 180.393034217 807.426912909 145 799 c 0
 91.9751399249 786.763493829 80.5425252046 756.965817397 80.5425252046 702.067063045 c 0
 80.5425252046 676.20930369 83.0788353904 644.782903989 85 607 c 0
 87 559 97 351 103 315 c 0
 109 279 109 195 121 159 c 0
 133 123 151 54 151 27 c 0
 151 0 97 -27 97 -27 c 1xd0
EndSplineSet
Validated: 1
EndChar

StartChar: u
Encoding: 117 117 19
Width: 452
VWidth: 0
Flags: W
HStem: 0 114.957<44.6289 268.994> 0 86.459<189.105 362.103> 729 21G<389 389> 819.687 20G<353.259 362.648> 819.687 20G<353.259 362.648 407.056 413.482>
VStem: 341 84.5867<744.26 809.621> 377 42<475.39 684.676>
LayerCount: 2
Fore
SplineSet
389 729 m 1x34
 389 729 341 747 341 783 c 0
 341 813.496575182 345.305745823 839.68740454 361.212265315 839.68740454 c 0
 364.08276253 839.68740454 367.331050121 838.834474939 371 837 c 0
 395 825 419 795 425 771 c 0
 425.4 769.4 425.586666667 767.826666667 425.586666667 766.283555556 c 0
 425.586666667 744.68 389 729 389 729 c 1x34
28 87 m 1
 28 87 27.6875 87.75 27.6875 89.0625 c 0
 27.6875 93 30.5 102 53 111 c 0
 59.9722436227 113.788897449 74.0742738117 114.95738886 91.916730868 114.95738886 c 0xa2
 150.846363351 114.95738886 250.577794898 102.211102551 269 93 c 0
 278.16718427 88.416407865 290.83592135 86.4589803375 303.99689438 86.4589803375 c 0
 325.291796068 86.4589803375 347.875388203 91.583592135 359 99 c 0
 377 111 371 555 377 579 c 0
 383 603 383 681 389 687 c 0
 392.341070653 690.341070653 403.123976711 699.263517859 410.988844059 699.263517859 c 0
 415.97541068 699.263517859 419.788940882 695.67674038 419.788940882 684.806494127 c 0
 419.788940882 682.032470633 419.540588292 678.784118043 419 675 c 0
 413 633 407 15 395 0 c 0
 391 -5 383 -6.66666666667 372.333333333 -6.66666666667 c 0
 351 -6.66666666667 319 1.7021974108e-015 287 0 c 0x62
 239 0 107 0 71 0 c 0xa2
 35 0 28 87 28 87 c 1
EndSplineSet
Validated: 1
EndChar

StartChar: t
Encoding: 116 116 20
Width: 478
VWidth: 0
Flags: W
HStem: 0 93.6942<45.0157 294.163> 0 81<35.2327 195.326 198.944 368.785> 721 84<83.3591 152.841> 727 70<223.33 381.658> 769 36<20.3952 64.5651>
VStem: 391.217 44.783<520.398 636.699 638.093 714.764>
LayerCount: 2
Fore
SplineSet
172 805 m 1x0c
 172 805 166 721 142 721 c 0x24
 118 721 60 757 24 769 c 0
 16.3955830577 771.534805647 13.2531381086 774.605047934 13.2531381086 777.871419906 c 0
 13.2531381086 790.068349311 57.0696112949 805 76 805 c 0
 100 805 172 805 172 805 c 1x0c
69 81 m 1x44
 69 81 141.991735537 93.694214876 197.961682945 93.694214876 c 0
 218.950413223 93.694214876 237.545454545 91.9090909091 249 87 c 0
 262.313466521 81.2942286341 278.641361456 79.2057713659 294.925971147 79.2057713659 c 0
 330.014428415 79.2057713659 364.901923789 88.9019237886 369 93 c 0
 373.864366882 97.864366882 391.217045933 412.964699224 391.217045933 548.056141272 c 0
 391.217045933 579.594534505 390.271266236 601.32183441 388 607 c 0
 384.683281573 615.291796068 383.658359214 625.875388203 383.658359214 637.230527955 c 0
 383.658359214 655.603530023 386.341640786 675.996469977 386.341640786 691.969472045 c 0
 386.341640786 701.841330224 385.316718427 710.024922359 382 715 c 0
 374.8 725.8 361.12 727.96 342.256 727.96 c 0
 329.68 727.96 314.8 727 298 727 c 0
 237.816377698 727 210.49209091 751.779171043 210.49209091 774.452990747 c 0
 210.49209091 782.672180546 214.082611949 790.614718722 221 797 c 1
 221 797 389 797 431 797 c 0x94
 446.206896552 797 451.057372176 792.542806183 451.057372176 784.862509738 c 0
 451.057372176 771.330558859 436 747.793103448 436 721 c 0
 436 679 432 0 405 0 c 0x64
 378 0 111 0 99 0 c 0x84
 87 0 45 0 26 33 c 0
 23.4755244755 37.3846153846 22.3809966258 41.4514646193 22.3809966258 45.2075844836 c 0
 22.3809966258 69.7212088611 69 81 69 81 c 1x44
EndSplineSet
Validated: 1
EndChar

StartChar: n
Encoding: 110 110 21
Width: 478
VWidth: 0
Flags: W
HStem: 0 73.6668<133.613 270.8> 841.404 20G<427.782 431.532> 841.404 20G<427.782 431.532>
VStem: 23.7197 71.7134<126.324 230.013> 366 66<155.625 536.886>
LayerCount: 2
Fore
SplineSet
202 405 m 1xd8
 202 405 287 403 300 399 c 0
 313.548541164 394.605878541 318.113357833 382.16663067 318.113357833 368.163321196 c 0
 318.113357833 343.924694194 304.436762483 315 300 315 c 1
 300 315 289.244444444 326.831111111 258.268444444 326.831111111 c 0
 247.004444444 326.831111111 233.066666667 325.266666667 216 321 c 0
 168 309 102 237 96 171 c 0
 95.6204993518 166.82549287 95.4330263596 162.843013396 95.4330263596 159.041934029 c 0
 95.4330263596 102.746999568 136.554007778 86.2409987036 204 75 c 0
 209.436014412 74.0939975981 214.872028823 73.666818735 220.279638663 73.666818735 c 0
 286.495810328 73.666818735 348.453001201 137.718007206 354 171 c 0
 360 207 366 285 366 327 c 0
 366 366.460324136 424.259486362 861.403905285 431.305210712 861.403905285 c 0
 431.758675209 861.403905285 432 859.353730052 432 855 c 0
 432 783 432 405 432 375 c 0
 432 213 400 123 400 105 c 0
 400 87 244 0 214 0 c 0
 184 0 166 0 124 27 c 0
 83.583170918 52.982247267 23.7196742999 151.194973954 23.7196742999 185.295987751 c 0
 23.7196742999 186.631761352 23.8115272717 187.86916363 24 189 c 0
 54 363 202 405 202 405 c 1xd8
EndSplineSet
Validated: 1
EndChar

StartChar: q
Encoding: 113 113 22
Width: 416
VWidth: 0
Flags: W
HStem: -8.67769 99.5782<113.286 349.147> -6 117.578<207.941 369.818> 779.598 20G<236.034 299.053> 779.598 20G<236.034 299.053>
VStem: 19.5556 45.4444<404.233 735.201> 28 58.0323<117.902 444.531>
LayerCount: 2
Fore
SplineSet
374 21 m 1x64
 374 21 353 -6 347 -6 c 0x64
 343.727272727 -6 272.619834711 -8.67768595041 204.758076634 -8.67768595041 c 0
 148.20661157 -8.67768595041 93.9090909091 -6.81818181818 83 0 c 0
 59 15 28 165 28 225 c 0x84
 28 265 19.5555555556 478.333333333 19.5555555556 625 c 0x88
 19.5555555556 698.333333333 21.6666666667 755 28 765 c 0x84
 42.0914903487 787.249721603 189.296455102 799.598440978 282.772485418 799.598440978 c 0
 315.333129155 799.598440978 341.374582405 798.100111359 353 795 c 0
 356.412184675 794.090084087 357.995986459 793.249163754 357.995986459 792.456312277 c 0
 357.995986459 782.793013258 122.725210217 780.27025226 95 747 c 0
 65 711 65 663 65 603 c 0xa8
 65 543 71 279 83 255 c 0
 85.2629658164 250.474068367 86.032302466 244.241131973 86.032302466 236.86452944 c 0
 86.032302466 221.193814796 82.5602901266 200.36174076 82.5602901266 179.769215416 c 0
 82.5602901266 158.653114003 86.2111025509 137.788897449 101 123 c 0
 126.834474939 97.1655250606 156.273842369 90.9004664985 190.426798774 90.9004664985 c 0
 203.865536548 90.9004664985 218.034088105 91.8704972155 233 93 c 0
 305 99 272 93 347 111 c 0
 348.608695652 111.391304348 350.128544423 111.578449905 351.564231117 111.578449905 c 0
 371.563094883 111.578449905 375.231148046 75.2647235939 375.231148046 48.6230743063 c 0
 375.231148046 33.188365651 374 21 374 21 c 1x64
EndSplineSet
Validated: 1
EndChar

StartChar: period
Encoding: 46 46 23
Width: 692
VWidth: 0
Flags: W
HStem: 152.873 138.026<192.011 334.585>
LayerCount: 2
Fore
SplineSet
192 319 m 1
 192 319 264 319 288 295 c 0
 290.875946561 292.124053439 297.600237552 290.899448703 307.157651667 290.899448703 c 0
 362.011353607 290.899448703 510.189739005 331.238623617 559.756411095 331.238623617 c 0
 570.109235328 331.238623617 576.160096635 329.478816094 576.160096635 325.224070881 c 0
 576.160096635 323.779785819 575.462866868 322.048013615 574 320 c 0
 545.52414237 280.133799318 253.964568537 152.873350446 193.625720344 152.873350446 c 0
 190.396142633 152.873350446 187.828970844 153.237928815 186 154 c 0
 150 169 126 205 126 235 c 0
 126 265 192 319 192 319 c 1
EndSplineSet
Validated: 1
EndChar

StartChar: U
Encoding: 85 85 24
Width: 452
VWidth: 0
Flags: W
HStem: 0 114.957<44.6289 268.994> 0 86.459<189.105 362.103> 729 21G<389 389> 819.687 20G<353.259 362.648> 819.687 20G<353.259 362.648 407.056 413.482>
VStem: 341 84.5867<744.26 809.621> 377 42<475.39 684.676>
LayerCount: 2
Fore
SplineSet
389 729 m 1x34
 389 729 341 747 341 783 c 0
 341 813.496575182 345.305745823 839.68740454 361.212265315 839.68740454 c 0
 364.08276253 839.68740454 367.331050121 838.834474939 371 837 c 0
 395 825 419 795 425 771 c 0
 425.4 769.4 425.586666667 767.826666667 425.586666667 766.283555556 c 0
 425.586666667 744.68 389 729 389 729 c 1x34
28 87 m 1
 28 87 27.6875 87.75 27.6875 89.0625 c 0
 27.6875 93 30.5 102 53 111 c 0
 59.9722436227 113.788897449 74.0742738117 114.95738886 91.916730868 114.95738886 c 0xa2
 150.846363351 114.95738886 250.577794898 102.211102551 269 93 c 0
 278.16718427 88.416407865 290.83592135 86.4589803375 303.99689438 86.4589803375 c 0
 325.291796068 86.4589803375 347.875388203 91.583592135 359 99 c 0
 377 111 371 555 377 579 c 0
 383 603 383 681 389 687 c 0
 392.341070653 690.341070653 403.123976711 699.263517859 410.988844059 699.263517859 c 0
 415.97541068 699.263517859 419.788940882 695.67674038 419.788940882 684.806494127 c 0
 419.788940882 682.032470633 419.540588292 678.784118043 419 675 c 0
 413 633 407 15 395 0 c 0
 391 -5 383 -6.66666666667 372.333333333 -6.66666666667 c 0
 351 -6.66666666667 319 1.7021974108e-015 287 0 c 0x62
 239 0 107 0 71 0 c 0xa2
 35 0 28 87 28 87 c 1
EndSplineSet
Validated: 1
EndChar

StartChar: v
Encoding: 118 118 25
Width: 470
VWidth: 0
Flags: W
HStem: 740.315 66.6851<127.461 301.066>
VStem: 25 52.6857<495.637 690.515> 191 4.09338<298.649 303> 323 86.6667<158.961 478.582> 359.587 56.4133<431.339 696.73>
LayerCount: 2
Fore
SplineSet
77 459 m 1xe0
 77 459 98 456 119 435 c 0
 155 399 173 404 179 369 c 0
 187.554931316 321.947877761 195.093378607 297.25840408 195.093378607 294.931578956 c 0
 195.093378607 294.810526319 195.072975189 294.75 195.03125 294.75 c 0
 194.75 294.75 193.5 297.5 191 303 c 0
 181 325 125 339 107 357 c 0
 89 375 77 375 65 393 c 0
 62.6 396.6 61.64 401.4 61.64 406.776 c 0
 61.64 428.28 77 459 77 459 c 1xe0
281 84 m 1
 281 84 323 237 323 255 c 0xf0
 323 271.8 359.586666667 607.426666667 359.586666667 666.736888889 c 0
 359.586666667 670.973333333 359.4 673.8 359 675 c 0
 353 693 287 735 239 735 c 0
 216.411764706 735 197.14532872 740.314878893 178.074292693 740.314878893 c 0
 156.619377163 740.314878893 135.411764706 733.588235294 110 705 c 0
 84.6083900023 676.434438753 77.6857186531 631.078933279 77.6857186531 592.026018179 c 0
 77.6857186531 557.253763272 83.1739512497 527.478146251 86 519 c 0
 86.5462567626 517.361229712 86.8024058648 515.622993941 86.8024058648 513.821515148 c 0
 86.8024058648 497.58822315 66.003153161 476.219611234 49.252083848 476.219611234 c 0
 47.4437951284 476.219611234 45.6826812724 476.468626967 44 477 c 0
 25 483 25 609 25 621 c 0
 25 633 44 717 50 729 c 0
 56 741 146 807 188 807 c 0
 230 807 311 790 335 771 c 0
 389 729 416 747 416 639 c 0xe8
 416 531 407 291 407 237 c 0
 407 201 409.666666667 173 409.666666667 139.666666667 c 0
 409.666666667 123 409 105 407 84 c 0
 401.643161516 26.860389499 385.658279124 9.04454145363 366.003795723 9.04454145363 c 0
 352.636870859 9.04454145363 337.572646062 17.2849026252 323 27 c 0xf0
 287 51 281 84 281 84 c 1
EndSplineSet
Validated: 1
EndChar

StartChar: x
Encoding: 120 120 26
Width: 468
VWidth: 0
Flags: W
HStem: -10.4255 61.4255<98.8071 320.311> 732.932 20G<51.3259 51.6513> 732.932 20G<51.3259 51.6513>
VStem: 20 30.4186<484.658 685.945> 271.5 1.5<492.488 502.5> 291 96<355.992 418.787> 327.971 101.43<72.398 250.222>
LayerCount: 2
Fore
SplineSet
321 339 m 1x9c
 321 339 291 351 291 363 c 0
 291 375 291 393 279 441 c 0
 273 465 271.5 481.5 271.5 492 c 0
 271.5 502.5 273 507 273 507 c 1
 273 507 387 409 387 387 c 0
 387 351 321 339 321 339 c 1x9c
393 291 m 1
 393 291 417 273 423 261 c 0
 425.859762657 255.280474687 429.401045518 235.930545286 429.401045518 206.848183859 c 0
 429.401045518 174.913534606 425.131068045 131.243797494 411 81 c 0
 384 -15 381 27 231 0 c 0
 191.791918129 -7.0574547368 162.832327485 -10.425452632 140.906638602 -10.425452632 c 0
 78.9503017546 -10.425452632 73.1583836258 16.4673943859 51 63 c 0
 21 126 20 465 20 501 c 0
 20 533.954139606 51.0039249497 752.93182891 51.6479507578 752.93182891 c 0
 51.6547099396 752.93182891 51.658125 752.907708672 51.658125 752.859 c 0
 51.658125 752.47875 51.45 750.6 51 747 c 0
 50.6055512755 743.844410204 50.4185556126 738.095657136 50.4185556126 730.108335711 c 0
 50.4185556126 616.599691833 88.1833461736 51 105 51 c 0
 123 51 309 63 321 69 c 0
 325.43277675 71.2163883751 326.590635214 77.526424608 326.590635214 86.7203602288 c 0
 326.590635214 96.777020947 325.205283153 110.284203543 325.205283153 125.658648518 c 0
 325.205283153 134.278487478 325.640754482 143.485281374 327 153 c 0
 327.676209992 157.733469946 327.971370023 162.314519907 327.971370023 166.751738877 c 0xda
 327.971370023 197.248670961 314.028629977 220.951329039 314.028629977 240.648261123 c 0
 314.028629977 243.51411007 314.323790008 246.295160031 315 249 c 0
 321 273 393 291 393 291 c 1
EndSplineSet
Validated: 1
EndChar

StartChar: D
Encoding: 68 68 27
Width: 558
VWidth: 0
Flags: W
HStem: 544.244 72.2563<96.5641 391.621>
VStem: 32 109<215.126 378.375> 32 60.7163<400.209 535.819> 477 36<209.273 363.037> 478.5 42.18<246.607 492.756>
LayerCount: 2
Fore
SplineSet
111 180 m 1xc0
 111 180 32 219 32 243 c 0xc0
 32 267 32 423 32 477 c 0
 32 531 69 615 105 615 c 0
 123 615 187.5 616.5 252.75 616.5 c 0
 318 616.5 384 615 405 609 c 0
 447 597 513 561 519 489 c 0
 520.2 474.6 520.68 454.68 520.68 431.808 c 0xa8
 520.68 340.32 513 201.6 513 180 c 0
 513 176.865541522 512.514823212 175.4696332 511.657119007 175.4696332 c 0
 505.126620846 175.4696332 477 256.393092657 477 267 c 0x90
 477 273 478.5 318 478.5 365.25 c 0
 478.5 412.5 477 462 471 477 c 0
 459 507 393 531 285 537 c 0
 239.215927607 539.543559577 196.666702875 544.243684263 163.294790293 544.243684263 c 0
 120.437813755 544.243684263 92.7163231134 536.492104091 92.7163231134 506.466630581 c 0xa8
 92.7163231134 504.720686408 92.8100572007 502.899427993 93 501 c 0
 99 441 141 318 141 249 c 0
 141 180 111 180 111 180 c 1xc0
EndSplineSet
Validated: 1
EndChar

StartChar: E
Encoding: 69 69 28
Width: 502
VWidth: 0
Flags: W
HStem: 167.087 63.9132<152.52 300.814>
VStem: 22.3172 78.6828<308.152 461.68> 376.367 80.5157<288.469 426.229>
LayerCount: 2
Fore
SplineSet
263 585 m 1
 263 585 185 549 137 489 c 0
 102 445 101 417 101 363 c 0
 101 309 131 279 149 255 c 0
 167 231 239 231 269 231 c 0
 299 231 335 273 359 291 c 0
 372.266873708 300.950155281 376.366563146 320.067494832 376.366563146 342.271024855 c 0
 376.366563146 360.234057978 373.683281573 380.217028989 371 399 c 0
 365.079971192 440.440201656 256.940280881 483.827444483 256.940280881 523.398458568 c 0
 256.940280881 523.93300684 256.960014404 524.46685872 257 525 c 0
 263 597 299 579 329 585 c 0
 329.741472257 585.148294451 330.512266174 585.220841284 331.310660571 585.220841284 c 0
 362.815338457 585.220841284 437.296588903 472.258527743 449 443 c 0
 453.970562748 430.573593129 456.882250994 412.656854249 456.882250994 391.239682094 c 0
 456.882250994 360.951226765 451.058874503 323.661904883 437 285 c 0
 413 219 311 183 203 168 c 0
 198.565437186 167.384088498 194.201685807 167.086828458 189.909991967 167.086828458 c 0
 89.6811379767 167.086828458 28.7536353992 329.217281407 23 381 c 0
 22.5360367292 385.175669438 22.3172328634 389.249687414 22.3172328634 393.226215332 c 0
 22.3172328634 440.674377692 53.4692170243 474.242489142 71 501 c 0
 119 573 263 585 263 585 c 1
EndSplineSet
Validated: 1
EndChar

StartChar: I
Encoding: 73 73 30
Width: 500
VWidth: 0
Flags: W
HStem: 183 44.8442<147.243 341.697> 583 20G<77 77>
LayerCount: 2
Fore
SplineSet
77 603 m 1
 77 603 119 573 119 555 c 0
 119 540.176470588 90.5155709343 378.861591696 90.5155709343 305.633014451 c 0
 90.5155709343 289.941176471 91.8235294118 278.294117647 95 273 c 0
 109.756470249 248.405882918 249.519530136 227.84423647 319.244905048 227.84423647 c 0
 334.570814572 227.84423647 346.512940498 228.837646833 353 231 c 0
 389 243 479 261 479 261 c 1
 479 261 401 225 383 219 c 0
 365 213 287 183 233 183 c 0
 179 183 84 189 59 207 c 0
 40.146092456 220.574813432 22.9984400944 391.125103649 22.9984400944 487.029912966 c 0
 22.9984400944 518.293449379 24.8206571299 541.624689053 29 549 c 0
 46 579 77 603 77 603 c 1
EndSplineSet
Validated: 1
EndChar

StartChar: P
Encoding: 80 80 31
Width: 238
VWidth: 0
Flags: W
HStem: -27 21G<97 97> 799 37.7235<105.203 243.583>
VStem: 16.2282 64.3144<378.805 661.072> 24 127<-2.45297 130.706>
LayerCount: 2
Fore
SplineSet
97 -27 m 1xd0
 97 -27 67 -27 43 0 c 0
 30 14 24 57 24 93 c 0xd0
 24 110.470588235 16.2281574394 270.660467128 16.2281574394 435.505139426 c 0xe0
 16.2281574394 610.340397924 24.9705882353 790.411764706 61 811 c 0
 102.539121205 834.736640688 156.305414961 840.377066001 204.280311176 840.377066001 c 0
 247.72979412 840.377066001 286.428939031 835.750561485 306.992325081 835.750561485 c 0
 309.637901918 835.750561485 311.983294967 835.827139569 314 836 c 0
 320.42002587 836.493848144 324.922836881 836.723486466 327.757124786 836.723486466 c 0
 330.339783493 836.723486466 331.537032143 836.532812906 331.537032143 836.177622752 c 0
 331.537032143 832.186783887 180.393034217 807.426912909 145 799 c 0
 91.9751399249 786.763493829 80.5425252046 756.965817397 80.5425252046 702.067063045 c 0
 80.5425252046 676.20930369 83.0788353904 644.782903989 85 607 c 0
 87 559 97 351 103 315 c 0
 109 279 109 195 121 159 c 0
 133 123 151 54 151 27 c 0
 151 0 97 -27 97 -27 c 1xd0
EndSplineSet
Validated: 1
EndChar

StartChar: y
Encoding: 121 121 32
Width: 434
VWidth: 0
Flags: W
HStem: 608.143 21G<362.108 363.342> 727.793 20G<354.4 363.821> 759.694 59.0962<78.0302 300.853>
VStem: 40 56.4132<592.305 752.919> 361.971 24.0292<620.698 666.603>
LayerCount: 2
Fore
SplineSet
326 723 m 1
 326 723 345.834710744 747.79338843 362.964688204 747.79338843 c 0
 364.67768595 747.79338843 366.363636364 747.545454545 368 747 c 0
 386 741 386 699 386 675 c 0
 386 652.747289404 364.507676699 608.142562576 362.175338385 608.142562576 c 0
 362.041525516 608.142562576 361.970780469 608.289385395 361.970780469 608.595675871 c 0
 361.970780469 608.708573626 361.980392157 608.843137255 362 609 c 0
 362.025337032 609.228033285 362.03783476 609.467621944 362.03783476 609.718424401 c 0
 362.03783476 619.366273817 343.543933429 645.608088761 326 669 c 0
 320 677 318 685.666666667 318 693.666666667 c 0
 318 709.666666667 326 723 326 723 c 1
56 33 m 1
 56 33 56 51 40 81 c 0
 34.6666666667 91 32.8888888889 171.666666667 32.8888888889 275.888888889 c 0
 32.8888888889 484.333333333 40 787 40 807 c 0
 40 815.619142055 62.1217949066 818.790379394 93.9385752881 818.790379394 c 0
 172.86407127 818.790379394 311.447656822 799.276171589 320 795 c 0
 323.100111359 793.449944321 324.598440978 789.497216032 324.598440978 784.486692696 c 0
 324.598440978 770.102338533 312.249721603 747 290 747 c 0
 268.181818182 747 182.892561983 759.694214876 133.377911345 759.694214876 c 0
 114.809917355 759.694214876 101.272727273 757.909090909 98 753 c 0
 96.9090909091 751.363636364 96.4132231405 744.47107438 96.4132231405 733.273478588 c 0
 96.4132231405 621.297520661 146 78.8181818182 146 57 c 0
 146 33 116 0 86 0 c 0
 56 0 56 33 56 33 c 1
EndSplineSet
Validated: 1
EndChar

StartChar: w
Encoding: 119 119 33
Width: 442
VWidth: 0
Flags: W
HStem: -0.5625 63.2336<142.288 288.995> 327.798 96.4096<173.809 278.566> 718.875 76.125<109.012 199.968> 757 20G<67 68.5> 757 20G<67 68.5>
VStem: 18.7365 58.8326<129.446 375.417> 33.6667 51.7347<187.461 640.257> 320.09 84.8108<99.4505 279.944>
LayerCount: 2
Fore
SplineSet
109 729 m 1xe1
 109 729 99.9112426036 751.721893491 99.9112426036 770.598543468 c 0
 99.9112426036 782.396449704 103.461538462 792.692307692 115 795 c 0
 123.786796564 796.757359313 136.176623509 797.485281374 149.908116908 797.485281374 c 0
 183.058874503 797.485281374 224.029437252 793.242640687 241 789 c 0
 244.572180472 788.106954882 246.150536987 786.283458584 246.150536987 783.786705237 c 0
 246.150536987 769.508807695 194.53477441 733.213909764 169 723 c 0
 161.5 720 154 718.875 146.96875 718.875 c 0
 125.875 718.875 109 729 109 729 c 1xe1
151 363 m 1
 151 363 169 417 187 423 c 0
 189.513167019 423.83772234 193.780780836 424.207592201 199.29659792 424.207592201 c 0
 233.286594318 424.207592201 314.67544468 410.16227766 325 405 c 0
 337 399 367 351 394 279 c 0
 401.576880247 258.794986009 404.90123351 235.754954029 404.90123351 211.868847745 c 0
 404.90123351 150.637485009 383.055617421 83.8462395065 355 45 c 0
 325.75 4.5 306.625 -0.5625 273.578125 -0.5625 c 0
 262.5625 -0.5625 250 0 235 0 c 0
 175 0 85 33 43 75 c 0
 24.3874945699 93.6125054301 18.7364821406 122.82986877 18.7364821406 155.341609448 c 0xd5
 18.7364821406 196.194151381 27.6589293472 242.248222819 31 279 c 0
 33 301 33.6666666667 333.666666667 33.6666666667 368.555555556 c 0
 33.6666666667 438.333333333 31 517 31 537 c 0
 31 567 67 777 67 777 c 0
 70 744 68 668 85 423 c 0
 85.2778850331 418.553839471 85.4013298829 412.563277109 85.4013298829 405.347803275 c 0xd3
 85.4013298829 347.873791056 77.5690843182 212.682421961 77.5690843182 161.238450708 c 0xd5
 77.5690843182 149.416603005 77.9826914723 142.017308528 79 141 c 0
 84.7780934178 135.221906582 129.506944304 62.6710860751 229.262346613 62.6710860751 c 0
 233.093433926 62.6710860751 237.00568152 62.7780934178 241 63 c 0
 304.095885962 66.5053269979 320.090388702 129.399354579 320.090388702 184.682647862 c 0
 320.090388702 224.026691743 311.989346004 259.515980994 307 267 c 0
 295 285 277 321 241 327 c 0
 237.696938457 327.550510257 234.696938457 327.797958971 231.944387171 327.797958971 c 0
 207.449489743 327.797958971 202.550510257 308.202041029 178.055612829 308.202041029 c 0
 175.303061543 308.202041029 172.303061543 308.449489743 169 309 c 0
 151 312 146.5 325.5 146.5 338.25 c 0
 146.5 351 151 363 151 363 c 1
EndSplineSet
Validated: 1
EndChar

StartChar: z
Encoding: 122 122 34
Width: 448
VWidth: 0
Flags: W
HStem: 0 75.7333<105.191 254.398> 21 100.125<258.562 369.985> 733.278 61.7224<212.823 293.217> 746.388 20G<376.929 392.796> 746.388 20G<376.929 392.796> 754.596 50.233<78.5029 285.303>
VStem: 24.2222 39.7778<334.91 727.549> 332.32 87.0874<669.263 740.98> 335.224 58.7755<600.281 693.918>
LayerCount: 2
Fore
SplineSet
340 741 m 1x13
 340 741 365.388429752 766.388429752 388.468820436 766.388429752 c 0
 397.123966942 766.388429752 405.454545455 762.818181818 412 753 c 0
 417.333333333 745 419.407407407 736.111111111 419.407407407 726.794238683 c 0x13
 419.407407407 694.185185185 394 656.333333333 394 633 c 0
 394 603 322 567 322 567 c 17
 322 567 335.224489796 637.530612245 335.224489796 669.017492711 c 0x1280
 335.224489796 674.265306122 334.857142857 678.428571429 334 681 c 0
 332.8 684.6 332.32 689.16 332.32 694.152 c 0
 332.32 714.12 340 741 340 741 c 1x13
370 111 m 1
 370 111 390.833333333 52.6666666667 390.833333333 29.75 c 0
 390.833333333 25.1666666667 390 22 388 21 c 0x42
 376 15 268 0 262 0 c 0
 256 0 42 0 42 0 c 17
 42 0 24.2222222222 326.666666667 24.2222222222 555.111111111 c 0
 24.2222222222 669.333333333 28.6666666667 759 42 771 c 0
 67.6440422584 794.079638033 136.033183234 804.828959127 192.88656565 804.828959127 c 0x86
 224.714026672 804.828959127 252.926244371 801.460180984 268 795 c 0
 292.762099923 784.387671462 300.83953066 761.261841034 300.83953066 746.525802093 c 0
 300.83953066 738.726633832 298.576927956 733.277564943 295.327768822 733.277564943 c 0x22
 294.303264295 733.277564943 293.18067361 733.81932639 292 735 c 0
 282.202041029 744.797958971 244.404082058 754.595917942 211.265986324 754.595917942 c 0
 203.81836926 754.595917942 196.606123087 754.101020514 190 753 c 0
 154 747 82 753 76 729 c 0
 70 705 64 555 64 513 c 0
 64 471 82 105 112 87 c 0
 126.33809621 78.3971422738 134.965609006 75.7332912991 144.760365518 75.7332912991 c 0x86
 155.459452194 75.7332912991 167.551271235 78.9117461614 190 81 c 0
 250 87 262 105 298 117 c 0
 307 120 316 121.125 324.4375 121.125 c 0x42
 349.75 121.125 370 111 370 111 c 1
EndSplineSet
Validated: 1
EndChar

StartChar: C
Encoding: 67 67 35
Width: 538
VWidth: 0
Flags: W
HStem: 125.333 79.7844<167.223 425.851>
VStem: 458.23 53.77<252.358 524.238>
LayerCount: 2
Fore
SplineSet
59 243 m 1
 59 243 239 225 299 213 c 0
 323.852813742 208.029437252 346.646752982 205.117749006 366.102597104 205.117749006 c 0
 393.61731573 205.117749006 414.455844123 210.941125497 425 225 c 0
 439.632497668 244.509996891 458.229995114 335.389989784 458.229995114 388.050706449 c 0
 458.229995114 400.169969352 457.245001555 410.264995336 455 417 c 0
 443 453 431 723 431 723 c 1
 431 723 485 585 491 519 c 0
 497 453 512 357 512 315 c 0
 512 273 497 147 473 132 c 0
 465 127 433 125.333333333 390.777777778 125.333333333 c 0
 306.333333333 125.333333333 181 132 125 132 c 0
 41 132 16 165 16 177 c 0
 16 189 59 243 59 243 c 1
EndSplineSet
Validated: 1
EndChar

StartChar: B
Encoding: 66 66 36
Width: 526
VWidth: 0
Flags: W
HStem: 548.614 96.3856<47.4758 350.833>
VStem: 437.91 68.0896<209.915 510.116>
LayerCount: 2
Fore
SplineSet
16 609 m 1
 16 609 65 645 155 645 c 0
 245 645 419 627 461 585 c 0
 503 543 506 327 506 261 c 0
 506 195 443 159 425 144 c 0
 422.272727273 141.727272727 410.95959596 140.763085399 393.836296853 140.763085399 c 0
 302.373751562 140.763085399 45.1433370715 168.271977487 45.1433370715 170.812530977 c 0
 45.1433370715 170.935525502 45.7462258316 171 47 171 c 0
 64 171 401 195 425 213 c 0
 435.394033504 220.795525128 437.910446931 260.101530561 437.910446931 304.111983054 c 0
 437.910446931 345.426747006 435.692858854 390.887302581 435.692858854 418.317769012 c 0
 435.692858854 429.137090834 436.03785526 437.151421042 437 441 c 0
 437.522774425 443.0910977 437.772255751 445.728781598 437.772255751 448.805898714 c 0
 437.772255751 481.04554885 410.386127875 561.522774425 383 567 c 0
 378.811388301 567.83772234 370.996919889 568.207592201 360.536420947 568.207592201 c 0
 296.075922006 568.207592201 131.135943621 554.16227766 95 549 c 0
 93.1739130435 548.739130435 91.3572778828 548.61436673 89.5527245829 548.61436673 c 0
 49.8525519849 548.61436673 16 609 16 609 c 1
EndSplineSet
Validated: 1
EndChar

StartChar: A
Encoding: 65 65 37
Width: 544
VWidth: 0
Flags: W
HStem: 549 121.057<37.3653 330.055>
VStem: 443.547 64.2401<334.399 527.133>
LayerCount: 2
Fore
SplineSet
406 147 m 1
 406 147 418 189 436 285 c 0
 440.872431386 310.986300727 443.546660216 344.006849636 443.546660216 378.349331457 c 0
 443.546660216 470.876706544 424.13441825 573 376 573 c 0
 310 573 148 549 88 549 c 0
 28 549 11 616 11 616 c 1
 11 616 11 651 40 663 c 0
 50.1577941222 667.203225154 99.3304378217 670.05688004 160.65927722 670.05688004 c 0
 274.421242099 670.05688004 430.010750513 660.237905672 456 631 c 0
 496.63965443 586.006096881 507.786781857 513.62627583 507.786781857 454.373294247 c 0
 507.786781857 431.977772288 506.194335081 411.457513111 504 395 c 0
 496 335 406 147 406 147 c 1
EndSplineSet
Validated: 1
EndChar

StartChar: F
Encoding: 70 70 38
Width: 497
VWidth: 0
Flags: W
HStem: 195.999 35.8665<148.843 423.654> 590.683 20G<460.398 460.947>
VStem: 22.04 99.4453<365.938 554.913> 443 18<424.397 468.861>
LayerCount: 2
Fore
SplineSet
65 579 m 1
 65 579 113 561 119 555 c 0
 120.757359313 553.242640687 121.485281374 545.308657865 121.485281374 533.007142675 c 0
 121.485281374 503.308657865 117.242640687 448.154328933 113 393 c 0
 112.261366246 383.397761202 111.886452374 373.977382344 111.886452374 364.817221364 c 0
 111.886452374 299.568427152 130.90907003 247.522732493 173 237 c 0
 187.884898469 233.278775383 213.732411122 231.865469541 243.206711903 231.865469541 c 0
 308.779511403 231.865469541 392.303061543 238.860612309 413 243 c 0
 443 249 437 321 443 357 c 0
 448.71529872 391.29179232 459.874704016 610.683208235 460.920868215 610.683208235 c 0
 460.972981727 610.683208235 461 610.13880512 461 609 c 0
 461 585 473 339 473 315 c 0
 473 291 461 225 425 201 c 0
 412.439050627 192.626033751 388.92133395 190.09567673 361.32821994 190.09567673 c 0
 319.182059379 190.09567673 267.527999792 195.998997826 230.887528808 195.998997826 c 0
 222.764782068 195.998997826 215.379885599 195.708876178 209 195 c 0
 193.431880245 193.270208916 177.365064292 191.291069733 161.662192378 191.291069733 c 0
 122.897659318 191.291069733 86.3510445808 203.352179632 65 261 c 0
 35 342 53 351 35 411 c 0
 24.2 447 22.04 476.52 22.04 499.56 c 0
 22.04 514.92 23 527.4 23 537 c 0
 23 561 65 579 65 579 c 1
EndSplineSet
Validated: 1
EndChar

StartChar: G
Encoding: 71 71 39
Width: 527
VWidth: 0
Flags: W
HStem: 549 34.86<140.758 363.915>
VStem: 20 66<283.127 498.844>
LayerCount: 2
Fore
SplineSet
1 201 m 1
 1 201 20 450 20 474 c 0
 20 498 92 567 128 579 c 0
 138.8 582.6 154.55 583.86 171.956 583.86 c 0
 212.57 583.86 262.2 577 279 577 c 0
 300.972033613 577 488.058201668 548.50314431 488.058201668 546.756539203 c 0
 488.058201668 546.701321299 487.87121439 546.672839506 487.486111111 546.672839506 c 0
 486.74691358 546.672839506 485.277777778 546.777777778 483 547 c 0
 460 549 242 549 188 549 c 0
 134 549 86 477 86 459 c 0
 86 441 110 267 116 219 c 0
 116.45577418 215.353806558 116.669196573 212.053829956 116.669196573 209.060621018 c 0
 116.669196573 172.649988301 85.0884516396 181.632677459 74 165 c 0
 72.2857142857 162.428571429 69.5714285714 161.326530612 66.1778425656 161.326530612 c 0
 45.8163265306 161.326530612 1 201 1 201 c 1
EndSplineSet
Validated: 1
EndChar

StartChar: H
Encoding: 72 72 40
Width: 523
VWidth: 0
Flags: W
HStem: 156 40.5496<148.471 358.519> 483 122<210.302 473.002> 493.125 103.875<122.871 395.802>
VStem: 22.3022 68.4385<243.684 463.073>
LayerCount: 2
Fore
SplineSet
504 537 m 1xb0
 504 537 468 483 414 483 c 0xd0
 373.5 483 271.125 493.125 207.28125 493.125 c 0
 186 493.125 169 492 160 489 c 0
 124 477 100 459 100 441 c 0
 100 431 90.7407407407 385.50617284 90.7407407407 337.783264746 c 0
 90.7407407407 299.604938272 96.6666666667 260 118 236 c 0
 145.01145341 205.837210359 214.178649037 196.54961999 286.450432473 196.54961999 c 0
 374.714512858 196.54961999 467.609162728 210.402290682 494 217 c 0
 497.64556962 217.911392405 499.676013459 218.332478769 500.294609554 218.332478769 c 0
 500.43233486 218.332478769 500.500075804 218.311605796 500.500075804 218.270623772 c 0
 500.500075804 216.072067742 305.542774447 156 262 156 c 0
 214 156 70 156 46 206 c 0
 35.6373862899 227.944358445 22.3022116689 308.225224765 22.3022116689 383.876620103 c 0
 22.3022116689 432.332303994 27.773054982 478.88871689 43 507 c 0
 82 579 106 597 166 597 c 0xb0
 206 597 321.555555556 605 399.481481481 605 c 0xd0
 438.444444444 605 468 603 474 597 c 0
 492 579 504 537 504 537 c 1xb0
EndSplineSet
Validated: 1
EndChar

StartChar: J
Encoding: 74 74 41
Width: 306
VWidth: 0
Flags: W
HStem: 686.067 103.55<-169.505 -147 -146.948 97.2984>
VStem: 211.636 66.364<32.503 401.677>
LayerCount: 2
Fore
SplineSet
-147 783 m 1
 -147 783 -75 783 -45 789 c 0
 -42.9128784748 789.417424305 -39.7270577148 789.617044797 -35.6014734153 789.617044797 c 0
 19.5735280388 789.617044797 242.83484861 753.912878475 254 726 c 0
 266 696 278 270 278 246 c 0
 278 222 236 -150 236 -150 c 1
 236 -150 210.437869822 -13.6686390533 210.437869822 106.407828858 c 0
 210.437869822 116.414201183 210.615384615 126.307692308 211 136 c 0
 211.432073246 147.665977639 211.635973138 160.462450534 211.635973138 174.171330958 c 0
 211.635973138 350.831290368 177.77579247 679.008170907 162 692 c 0
 156.779281751 696.568128468 132.287791136 698.261611334 100.406635667 698.261611334 c 0
 34.5812183687 698.261611334 -62.7466160606 691.042230657 -87 687 c 0
 -90.800621124 686.366563146 -94.801863372 686.067494832 -98.9413630114 686.067494832 c 0
 -134.011766742 686.067494832 -179.005883371 707.533747416 -196 729 c 0
 -198.329032258 731.941935484 -199.350801249 734.974027055 -199.350801249 738.029966366 c 0
 -199.350801249 759.904058273 -147 783 -147 783 c 1
EndSplineSet
Validated: 1
EndChar

StartChar: K
Encoding: 75 75 42
Width: 412
VWidth: 0
Flags: W
HStem: -83.1322 4.13223<0.0501679 144.017> 710.754 21G<16.611 37.2164> 808 20G<55 55> 808 20G<55 55>
VStem: 323.25 57.8775<-25.133 325.714>
LayerCount: 2
Fore
SplineSet
55 828 m 1xe8
 55 828 368 825 368 807 c 0
 368 793.956521739 381.127494224 361.358328082 381.127494224 115.353195803 c 0
 381.127494224 21.8712455367 379.231884058 -44.6666666667 374 -51 c 0
 351.636363636 -77.1818181818 242.396694215 -83.132231405 147.708489857 -83.132231405 c 0
 68.8016528926 -83.132231405 1.06581410364e-014 -79 0 -79 c 1
 0 -79 315 -34 321 -22 c 0
 322.5 -19 323.25 29 323.25 99.40625 c 0
 323.25 310.625 316.5 723.5 303 728 c 0
 295.183346174 730.605551275 258.513878189 732.645361097 215.757763051 732.645361097 c 0
 160.056137886 732.645361097 94.0241068881 729.183346174 68 719 c 0
 53.1336232836 713.182722154 41.6559607948 710.754158536 32.7768885944 710.754158536 c 0
 0.445113423103 710.754158536 2.56909052996 742.955458905 1 761 c 0
 0.964912280702 761.421052632 0.947676208064 761.847953216 0.947676208064 762.280366969 c 0
 0.947676208064 786.495537088 55 828 55 828 c 1xe8
EndSplineSet
Validated: 1
EndChar

StartChar: M
Encoding: 77 77 43
Width: 386
VWidth: 0
Flags: W
HStem: 721.846 67.6438<132.972 275.176>
VStem: 19.7543 90.2662<544.726 697.77> 284.928 64.4058<365.425 712.419>
LayerCount: 2
Fore
SplineSet
75 529 m 1
 72.7188359106 527.631301546 68.7724847484 526.418714381 64.0037531122 526.418714381 c 0
 47.8676683943 526.418714381 22.3156507732 540.302360395 20 609 c 0
 19.8345611274 613.301410688 19.7542734299 617.511587973 19.7542734299 621.63254433 c 0
 19.7542734299 692.239303882 43.3235109808 736.654388726 66 765 c 0
 83.1428571429 786.428571429 153.346938776 789.489795918 207.370262391 789.489795918 c 0
 228.979591837 789.489795918 248 789 260 789 c 0
 302 789 332 741 344 711 c 0
 348 701 349.333333333 664.333333333 349.333333333 618.111111111 c 0
 349.333333333 525.666666667 344 395 344 363 c 0
 344 315 254 -12 254 -12 c 1
 254 -12 252.5 14.25 252.5 54 c 0
 252.5 93.75 254 147 260 201 c 0
 268.230227492 275.072047429 284.927535556 470.505583048 284.927535556 595.664108792 c 0
 284.927535556 652.991706351 281.42443127 695.57556873 272 705 c 0
 259.22497216 717.77502784 246.449944321 721.84598441 232.284982071 721.84598441 c 0
 213.185917595 721.84598441 191.559955457 714.444994432 164 711 c 0
 118.689247712 705.336155964 109.913059308 678.286225752 109.913059308 629.850209363 c 0
 109.913059308 626.975473463 109.943974006 624.025403676 110 621 c 0
 110.01369863 620.150684932 110.020454119 619.307374742 110.020454119 618.47006429 c 0
 110.020454119 558.183711766 75 529 75 529 c 1
EndSplineSet
Validated: 1
EndChar

StartChar: N
Encoding: 78 78 44
Width: 478
VWidth: 0
Flags: W
HStem: 0 73.6668<133.613 270.8> 841.404 20G<427.782 431.532> 841.404 20G<427.782 431.532>
VStem: 23.7197 71.7134<126.324 230.013> 366 66<155.625 536.886>
LayerCount: 2
Fore
SplineSet
202 405 m 1xd8
 202 405 287 403 300 399 c 0
 313.548541164 394.605878541 318.113357833 382.16663067 318.113357833 368.163321196 c 0
 318.113357833 343.924694194 304.436762483 315 300 315 c 1
 300 315 289.244444444 326.831111111 258.268444444 326.831111111 c 0
 247.004444444 326.831111111 233.066666667 325.266666667 216 321 c 0
 168 309 102 237 96 171 c 0
 95.6204993518 166.82549287 95.4330263596 162.843013396 95.4330263596 159.041934029 c 0
 95.4330263596 102.746999568 136.554007778 86.2409987036 204 75 c 0
 209.436014412 74.0939975981 214.872028823 73.666818735 220.279638663 73.666818735 c 0
 286.495810328 73.666818735 348.453001201 137.718007206 354 171 c 0
 360 207 366 285 366 327 c 0
 366 366.460324136 424.259486362 861.403905285 431.305210712 861.403905285 c 0
 431.758675209 861.403905285 432 859.353730052 432 855 c 0
 432 783 432 405 432 375 c 0
 432 213 400 123 400 105 c 0
 400 87 244 0 214 0 c 0
 184 0 166 0 124 27 c 0
 83.583170918 52.982247267 23.7196742999 151.194973954 23.7196742999 185.295987751 c 0
 23.7196742999 186.631761352 23.8115272717 187.86916363 24 189 c 0
 54 363 202 405 202 405 c 1xd8
EndSplineSet
Validated: 1
EndChar

StartChar: O
Encoding: 79 79 45
Width: 456
VWidth: 0
Flags: W
HStem: -4.65156 70.677<112.873 340.329> 889 20G<399 399> 889 20G<399 399>
VStem: 23.1809 95.0436<134.597 356.968> 38 60.4217<82.5613 269.762>
LayerCount: 2
Fore
SplineSet
105 357 m 1xd0
 105 357 118.224489796 312.918367347 118.224489796 270.096209913 c 0xd0
 118.224489796 262.959183673 117.857142857 255.857142857 117 249 c 0
 112.584660634 213.677285071 98.4217104087 168.606959283 98.4217104087 132.917471503 c 0
 98.4217104087 120.108552044 100.246018098 108.507963803 105 99 c 0
 117.781836926 73.436326148 145.691021556 66.0254695408 175.837201125 66.0254695408 c 0
 188.144327398 66.0254695408 200.824286161 67.2606123087 213 69 c 0
 218.493246941 69.784749563 224.499687112 70.0563058955 230.858229249 70.0563058955 c 0
 245.149940463 70.0563058955 261.220429908 68.6844348453 277.240536183 68.6844348453 c 0
 308.588184715 68.6844348453 339.742918852 73.9372539332 357 105 c 0
 387 159 399 909 399 909 c 25
 399 909 429 201 429 153 c 0
 429 105 423 54 393 27 c 0
 370.888974491 7.10007704165 234.701877531 -4.65155509884 152.594637511 -4.65155509884 c 0
 123.299663302 -4.65155509884 100.888974491 -3.15558979629 93 0 c 0
 63 12 38 39 38 87 c 0xc8
 38 118.689320388 23.180884155 220.987369215 23.180884155 292.030709409 c 0
 23.180884155 328.597134508 27.1067961165 356.883495146 39 363 c 0
 48.5454545455 367.909090909 57.7933884298 369.694214876 66.196093163 369.694214876 c 0
 88.6033057851 369.694214876 105 357 105 357 c 1xd0
EndSplineSet
Validated: 1
EndChar

StartChar: Q
Encoding: 81 81 46
Width: 416
VWidth: 0
Flags: W
HStem: -8.67769 99.5782<113.392 349.146> -6 117.578<204.609 369.818> 779.598 20G<236.034 299.053> 779.598 20G<236.034 299.053>
VStem: 19.5556 45.4444<404.233 735.201> 28 58.0323<117.902 444.531>
LayerCount: 2
Fore
SplineSet
374 21 m 1x64
 374 21 353 -6 347 -6 c 0x64
 343.727272727 -6 270.834710744 -8.67768595041 201.350112697 -8.67768595041 c 0
 143.446280992 -8.67768595041 87.9090909091 -6.81818181818 77 0 c 0
 53 15 28 165 28 225 c 0x84
 28 265 19.5555555556 478.333333333 19.5555555556 625 c 0x88
 19.5555555556 698.333333333 21.6666666667 755 28 765 c 0x84
 42.0914903487 787.249721603 189.296455102 799.598440978 282.772485418 799.598440978 c 0
 315.333129155 799.598440978 341.374582405 798.100111359 353 795 c 0
 356.412184675 794.090084087 357.995986459 793.249163754 357.995986459 792.456312277 c 0
 357.995986459 782.793013258 122.725210217 780.27025226 95 747 c 0
 65 711 65 663 65 603 c 0xa8
 65 543 71 279 83 255 c 0
 85.2629658164 250.474068367 86.032302466 244.241131973 86.032302466 236.86452944 c 0
 86.032302466 221.193814796 82.5602901266 200.36174076 82.5602901266 179.769215416 c 0
 82.5602901266 158.653114003 86.2111025509 137.788897449 101 123 c 0
 126.834474939 97.1655250606 156.273842369 90.9004664985 190.426798774 90.9004664985 c 0
 203.865536548 90.9004664985 218.034088105 91.8704972155 233 93 c 0
 305 99 272 93 347 111 c 0
 348.608695652 111.391304348 350.128544423 111.578449905 351.564231117 111.578449905 c 0
 371.563094883 111.578449905 375.231148046 75.2647235939 375.231148046 48.6230743063 c 0
 375.231148046 33.188365651 374 21 374 21 c 1x64
EndSplineSet
Validated: 1
EndChar

StartChar: R
Encoding: 82 82 47
Width: 416
VWidth: 0
Flags: W
HStem: 4.61583 108.384<121.679 313> 768.122 20G<33.9597 35.9626> 768.122 20G<33.9597 35.9626>
VStem: 13.1308 20.4634<411.423 507.735>
LayerCount: 2
Fore
SplineSet
313 113 m 1xd0
 313 113 373 101 373 83 c 0
 373 65.7780241469 351.029892423 4.61583314054 322.855038194 4.61583314054 c 0
 321.582204164 4.61583314054 320.296706912 4.7406586177 319 5 c 0
 289 11 61 11 31 23 c 0
 18.07398993 28.170404028 13.1307739291 164.964087008 13.1307739291 321.3965938 c 0
 13.1307739291 528.028573137 21.755606042 768.92601007 32 786 c 0
 32.8608117807 787.434686301 33.6232813773 788.121514598 34.2961585688 788.121514598 c 0
 37.6291100866 788.121514598 38.7639103444 771.270170082 38.7639103444 744.98435429 c 0
 38.7639103444 688.880301198 33.5942146556 589.796573802 33.5942146556 519.85042696 c 0
 33.5942146556 490.839134578 34.4835622624 466.840407557 37 453 c 0
 49 387 62 224 79 171 c 0
 81.0953133832 164.190231505 81.8700953626 157.449062043 81.8700953626 150.929211619 c 0
 81.8700953626 132.417189839 75.6239519541 115.689399604 75.6239519541 104.241624877 c 0
 75.6239519541 94.54847043 80.102116707 88.6408165393 96.6420235685 88.6408165393 c 0
 106.222862947 88.6408165393 119.850868512 90.6230556599 139 95 c 0
 198 108 229 113 247 113 c 0
 265 113 313 113 313 113 c 1xd0
EndSplineSet
Validated: 1
EndChar

StartChar: S
Encoding: 83 83 48
Width: 256
VWidth: 0
Flags: W
HStem: 834 43.5868<17.6998 150.254>
VStem: 88 114<73.2206 170.573> 104.413 97.5868<224.492 434.987> 156.499 57.4196<570.813 819.833>
LayerCount: 2
Fore
SplineSet
124 177 m 1xc0
 124 177 128.875 177.375 136.1875 177.375 c 0
 158.125 177.375 202 174 202 147 c 0
 202 111 166 45 154 9 c 0
 151.397142274 1.19142682144 147.382853643 -2.10056746194 142.630655644 -2.10056746194 c 0
 125.473713002 -2.10056746194 98.6985711369 40.8085731786 94 69 c 0
 91 87 88 108 88 126.75 c 0
 88 145.5 91 162 100 171 c 0
 118 189 124 177 124 177 c 1xc0
154 210 m 1
 154 210 104.41322314 210 104.41322314 297.903831705 c 0xa0
 104.41322314 306.694214876 104.909090909 316.363636364 106 327 c 0
 111.661522795 383.615227949 156.498739359 715.350668962 156.498739359 792.924987934 c 0
 156.498739359 797.562810588 156.338477205 801.292182359 156 804 c 0
 153 828 68 834 -16.25 834 c 0
 -100.5 834 -184 828 -184 828 c 1
 -184 828 57.3223140496 877.58677686 128.246431255 877.58677686 c 0
 135.338842975 877.58677686 140.727272727 877.090909091 144 876 c 0
 180 864 186 858 204 816 c 0
 211.714285714 798 213.918367347 776.693877551 213.918367347 755.860058309 c 0x90
 213.918367347 728.081632653 210 701.142857143 210 684 c 0
 210 654 208 435 208 435 c 1
 208 435 202 417 202 369 c 0
 202 321 202 303 202 285 c 0xa0
 202 210 154 210 154 210 c 1
EndSplineSet
Validated: 1
EndChar

StartChar: T
Encoding: 84 84 49
Width: 478
VWidth: 0
Flags: W
HStem: 0 93.6942<45.0157 294.163> 0 81<35.2327 195.326 198.944 368.785> 721 84<83.3591 152.841> 727 70<223.33 381.658> 769 36<20.3952 64.5651>
VStem: 391.217 44.783<520.398 636.699 638.093 714.764>
LayerCount: 2
Fore
SplineSet
172 805 m 1x0c
 172 805 166 721 142 721 c 0x24
 118 721 60 757 24 769 c 0
 16.3955830577 771.534805647 13.2531381086 774.605047934 13.2531381086 777.871419906 c 0
 13.2531381086 790.068349311 57.0696112949 805 76 805 c 0
 100 805 172 805 172 805 c 1x0c
69 81 m 1x44
 69 81 141.991735537 93.694214876 197.961682945 93.694214876 c 0
 218.950413223 93.694214876 237.545454545 91.9090909091 249 87 c 0
 262.313466521 81.2942286341 278.641361456 79.2057713659 294.925971147 79.2057713659 c 0
 330.014428415 79.2057713659 364.901923789 88.9019237886 369 93 c 0
 373.864366882 97.864366882 391.217045933 412.964699224 391.217045933 548.056141272 c 0
 391.217045933 579.594534505 390.271266236 601.32183441 388 607 c 0
 384.683281573 615.291796068 383.658359214 625.875388203 383.658359214 637.230527955 c 0
 383.658359214 655.603530023 386.341640786 675.996469977 386.341640786 691.969472045 c 0
 386.341640786 701.841330224 385.316718427 710.024922359 382 715 c 0
 374.8 725.8 361.12 727.96 342.256 727.96 c 0
 329.68 727.96 314.8 727 298 727 c 0
 237.816377698 727 210.49209091 751.779171043 210.49209091 774.452990747 c 0
 210.49209091 782.672180546 214.082611949 790.614718722 221 797 c 1
 221 797 389 797 431 797 c 0x94
 446.206896552 797 451.057372176 792.542806183 451.057372176 784.862509738 c 0
 451.057372176 771.330558859 436 747.793103448 436 721 c 0
 436 679 432 0 405 0 c 0x64
 378 0 111 0 99 0 c 0x84
 87 0 45 0 26 33 c 0
 23.4755244755 37.3846153846 22.3809966258 41.4514646193 22.3809966258 45.2075844836 c 0
 22.3809966258 69.7212088611 69 81 69 81 c 1x44
EndSplineSet
Validated: 1
EndChar

StartChar: V
Encoding: 86 86 50
Width: 470
VWidth: 0
Flags: W
HStem: 740.315 66.6851<127.461 301.066>
VStem: 25 52.6857<495.637 690.515> 188 3.22025<304.42 307.464> 323 86.6667<158.961 478.582> 359.587 56.4133<431.339 696.73>
LayerCount: 2
Fore
SplineSet
77 459 m 1xe0
 77 459 98 456 119 435 c 0
 155 399 170 410 176 375 c 0
 184.649110641 327.429891476 191.220245868 302.198018644 191.220245868 300.427671458 c 0
 191.220245868 300.360938722 191.210908997 300.327542273 191.191994601 300.327542273 c 0
 191.016507035 300.327542273 190.016575724 303.202344793 188 309 c 0
 183 323 125 339 107 357 c 0
 89 375 77 375 65 393 c 0
 62.6 396.6 61.64 401.4 61.64 406.776 c 0
 61.64 428.28 77 459 77 459 c 1xe0
281 84 m 1
 281 84 323 237 323 255 c 0xf0
 323 271.8 359.586666667 607.426666667 359.586666667 666.736888889 c 0
 359.586666667 670.973333333 359.4 673.8 359 675 c 0
 353 693 287 735 239 735 c 0
 216.411764706 735 197.14532872 740.314878893 178.074292693 740.314878893 c 0
 156.619377163 740.314878893 135.411764706 733.588235294 110 705 c 0
 84.6083900023 676.434438753 77.6857186531 631.078933279 77.6857186531 592.026018179 c 0
 77.6857186531 557.253763272 83.1739512497 527.478146251 86 519 c 0
 86.5462567626 517.361229712 86.8024058648 515.622993941 86.8024058648 513.821515148 c 0
 86.8024058648 497.58822315 66.003153161 476.219611234 49.252083848 476.219611234 c 0
 47.4437951284 476.219611234 45.6826812724 476.468626967 44 477 c 0
 25 483 25 609 25 621 c 0
 25 633 44 717 50 729 c 0
 56 741 146 807 188 807 c 0
 230 807 311 790 335 771 c 0
 389 729 416 747 416 639 c 0xe8
 416 531 407 291 407 237 c 0
 407 201 409.666666667 173 409.666666667 139.666666667 c 0
 409.666666667 123 409 105 407 84 c 0
 401.643161516 26.860389499 385.658279124 9.04454145363 366.003795723 9.04454145363 c 0
 352.636870859 9.04454145363 337.572646062 17.2849026252 323 27 c 0xf0
 287 51 281 84 281 84 c 1
EndSplineSet
Validated: 1
EndChar

StartChar: W
Encoding: 87 87 51
Width: 442
VWidth: 0
Flags: W
HStem: -0.5625 63.2453<142.512 288.995> 327.798 96.4096<173.809 278.566> 718.875 76.125<109.012 199.968> 757 20G<64 70.5> 757 20G<64 70.5>
VStem: 18.7365 51.9636<121.044 360.206> 33.6667 45.2669<160.335 635.239> 320.09 84.8108<99.4505 279.944>
LayerCount: 2
Fore
SplineSet
109 729 m 1xe1
 109 729 99.9112426036 751.721893491 99.9112426036 770.598543468 c 0
 99.9112426036 782.396449704 103.461538462 792.692307692 115 795 c 0
 123.786796564 796.757359313 136.176623509 797.485281374 149.908116908 797.485281374 c 0
 183.058874503 797.485281374 224.029437252 793.242640687 241 789 c 0
 244.572180472 788.106954882 246.150536987 786.283458584 246.150536987 783.786705237 c 0
 246.150536987 769.508807695 194.53477441 733.213909764 169 723 c 0
 161.5 720 154 718.875 146.96875 718.875 c 0
 125.875 718.875 109 729 109 729 c 1xe1
151 363 m 1
 151 363 169 417 187 423 c 0
 189.513167019 423.83772234 193.780780836 424.207592201 199.29659792 424.207592201 c 0
 233.286594318 424.207592201 314.67544468 410.16227766 325 405 c 0
 337 399 367 351 394 279 c 0
 401.576880247 258.794986009 404.90123351 235.754954029 404.90123351 211.868847745 c 0
 404.90123351 150.637485009 383.055617421 83.8462395065 355 45 c 0
 325.75 4.5 306.625 -0.5625 273.578125 -0.5625 c 0
 262.5625 -0.5625 250 0 235 0 c 0
 175 0 85 33 43 75 c 0
 24.3874945699 93.6125054301 18.7364821406 122.82986877 18.7364821406 155.341609448 c 0xd5
 18.7364821406 196.194151381 27.6589293472 242.248222819 31 279 c 0
 33 301 33.6666666667 333.666666667 33.6666666667 368.555555556 c 0
 33.6666666667 438.333333333 31 517 31 537 c 0
 31 567 67 777 67 777 c 0
 74 761 70 704 78 428 c 0
 78.6562803401 402.93009101 78.9335412615 379.927560666 78.9335412615 358.836379274 c 0xd3
 78.9335412615 243.902284246 70.7000389854 185.727345384 70.7000389854 159.062155706 c 0xd5
 70.7000389854 153.340466474 71.0791302586 149.069565805 72 146 c 0
 74.8930454315 138.285212183 128.934330061 62.68276143 229.639787835 62.68276143 c 0
 233.362822622 62.68276143 237.149635534 62.786090863 241 63 c 0
 304.095885962 66.5053269979 320.090388702 129.399354579 320.090388702 184.682647862 c 0
 320.090388702 224.026691743 311.989346004 259.515980994 307 267 c 0
 295 285 277 321 241 327 c 0
 237.696938457 327.550510257 234.696938457 327.797958971 231.944387171 327.797958971 c 0
 207.449489743 327.797958971 202.550510257 308.202041029 178.055612829 308.202041029 c 0
 175.303061543 308.202041029 172.303061543 308.449489743 169 309 c 0
 151 312 146.5 325.5 146.5 338.25 c 0
 146.5 351 151 363 151 363 c 1
EndSplineSet
Validated: 1
EndChar

StartChar: X
Encoding: 88 88 52
Width: 468
VWidth: 0
Flags: W
HStem: -10.4255 61.4255<98.8071 320.311> 732.932 20G<51.3259 51.6513> 732.932 20G<51.3259 51.6513>
VStem: 20 30.4186<484.658 685.945> 271.5 1.5<492.488 502.5> 291 96<355.992 418.787> 327.971 101.43<72.398 250.222>
LayerCount: 2
Fore
SplineSet
321 339 m 1x9c
 321 339 291 351 291 363 c 0
 291 375 291 393 279 441 c 0
 273 465 271.5 481.5 271.5 492 c 0
 271.5 502.5 273 507 273 507 c 1
 273 507 387 409 387 387 c 0
 387 351 321 339 321 339 c 1x9c
393 291 m 1
 393 291 417 273 423 261 c 0
 425.859762657 255.280474687 429.401045518 235.930545286 429.401045518 206.848183859 c 0
 429.401045518 174.913534606 425.131068045 131.243797494 411 81 c 0
 384 -15 381 27 231 0 c 0
 191.791918129 -7.0574547368 162.832327485 -10.425452632 140.906638602 -10.425452632 c 0
 78.9503017546 -10.425452632 73.1583836258 16.4673943859 51 63 c 0
 21 126 20 465 20 501 c 0
 20 533.954139606 51.0039249497 752.93182891 51.6479507578 752.93182891 c 0
 51.6547099396 752.93182891 51.658125 752.907708672 51.658125 752.859 c 0
 51.658125 752.47875 51.45 750.6 51 747 c 0
 50.6055512755 743.844410204 50.4185556126 738.095657136 50.4185556126 730.108335711 c 0
 50.4185556126 616.599691833 88.1833461736 51 105 51 c 0
 123 51 309 63 321 69 c 0
 325.43277675 71.2163883751 326.590635214 77.526424608 326.590635214 86.7203602288 c 0
 326.590635214 96.777020947 325.205283153 110.284203543 325.205283153 125.658648518 c 0
 325.205283153 134.278487478 325.640754482 143.485281374 327 153 c 0
 327.676209992 157.733469946 327.971370023 162.314519907 327.971370023 166.751738877 c 0xda
 327.971370023 197.248670961 314.028629977 220.951329039 314.028629977 240.648261123 c 0
 314.028629977 243.51411007 314.323790008 246.295160031 315 249 c 0
 321 273 393 291 393 291 c 1
EndSplineSet
Validated: 1
EndChar

StartChar: Y
Encoding: 89 89 53
Width: 434
VWidth: 0
Flags: W
HStem: 608.143 21G<362.245 363.865> 727.793 20G<354.4 363.821> 759.694 59.0962<78.0302 300.853>
VStem: 40 56.4132<592.305 752.919> 362 24<630.649 633.674>
LayerCount: 2
Fore
SplineSet
326 723 m 1
 326 723 345.834710744 747.79338843 362.964688204 747.79338843 c 0
 364.67768595 747.79338843 366.363636364 747.545454545 368 747 c 0
 386 741 386 699 386 675 c 0
 386 652.747289404 365.367369631 608.142562576 362.363104929 608.142562576 c 0
 362.127209178 608.142562576 362 608.417570199 362 609 c 0
 362 616 344 645 326 669 c 0
 320 677 318 685.666666667 318 693.666666667 c 0
 318 709.666666667 326 723 326 723 c 1
56 33 m 1
 56 33 56 51 40 81 c 0
 34.6666666667 91 32.8888888889 171.666666667 32.8888888889 275.888888889 c 0
 32.8888888889 484.333333333 40 787 40 807 c 0
 40 815.619142055 62.1217949066 818.790379394 93.9385752881 818.790379394 c 0
 172.86407127 818.790379394 311.447656822 799.276171589 320 795 c 0
 323.100111359 793.449944321 324.598440978 789.497216032 324.598440978 784.486692696 c 0
 324.598440978 770.102338533 312.249721603 747 290 747 c 0
 268.181818182 747 182.892561983 759.694214876 133.377911345 759.694214876 c 0
 114.809917355 759.694214876 101.272727273 757.909090909 98 753 c 0
 96.9090909091 751.363636364 96.4132231405 744.47107438 96.4132231405 733.273478588 c 0
 96.4132231405 621.297520661 146 78.8181818182 146 57 c 0
 146 33 116 0 86 0 c 0
 56 0 56 33 56 33 c 1
EndSplineSet
Validated: 1
EndChar

StartChar: Z
Encoding: 90 90 54
Width: 448
VWidth: 0
Flags: W
HStem: 0 75.7333<105.191 254.398> 21 100.125<258.562 369.985> 733.278 61.7224<212.823 293.217> 746.388 20G<376.929 392.796> 746.388 20G<376.929 392.796> 754.596 50.233<78.5029 285.303>
VStem: 24.2222 39.7778<334.91 727.549> 332.32 87.0874<669.263 740.98> 335.224 58.7755<600.281 693.918>
LayerCount: 2
Fore
SplineSet
340 741 m 1x13
 340 741 365.388429752 766.388429752 388.468820436 766.388429752 c 0
 397.123966942 766.388429752 405.454545455 762.818181818 412 753 c 0
 417.333333333 745 419.407407407 736.111111111 419.407407407 726.794238683 c 0x13
 419.407407407 694.185185185 394 656.333333333 394 633 c 0
 394 603 322 567 322 567 c 17
 322 567 335.224489796 637.530612245 335.224489796 669.017492711 c 0x1280
 335.224489796 674.265306122 334.857142857 678.428571429 334 681 c 0
 332.8 684.6 332.32 689.16 332.32 694.152 c 0
 332.32 714.12 340 741 340 741 c 1x13
370 111 m 1
 370 111 390.833333333 52.6666666667 390.833333333 29.75 c 0
 390.833333333 25.1666666667 390 22 388 21 c 0x42
 376 15 268 0 262 0 c 0
 256 0 42 0 42 0 c 17
 42 0 24.2222222222 326.666666667 24.2222222222 555.111111111 c 0
 24.2222222222 669.333333333 28.6666666667 759 42 771 c 0
 67.6440422584 794.079638033 136.033183234 804.828959127 192.88656565 804.828959127 c 0x86
 224.714026672 804.828959127 252.926244371 801.460180984 268 795 c 0
 292.762099923 784.387671462 300.83953066 761.261841034 300.83953066 746.525802093 c 0
 300.83953066 738.726633832 298.576927956 733.277564943 295.327768822 733.277564943 c 0x22
 294.303264295 733.277564943 293.18067361 733.81932639 292 735 c 0
 282.202041029 744.797958971 244.404082058 754.595917942 211.265986324 754.595917942 c 0
 203.81836926 754.595917942 196.606123087 754.101020514 190 753 c 0
 154 747 82 753 76 729 c 0
 70 705 64 555 64 513 c 0
 64 471 82 105 112 87 c 0
 126.33809621 78.3971422738 134.965609006 75.7332912991 144.760365518 75.7332912991 c 0x86
 155.459452194 75.7332912991 167.551271235 78.9117461614 190 81 c 0
 250 87 262 105 298 117 c 0
 307 120 316 121.125 324.4375 121.125 c 0x42
 349.75 121.125 370 111 370 111 c 1
EndSplineSet
Validated: 1
EndChar
